ffmpeg started on 2016-12-06 at 22:16:56
Report written to "Output/x264/results/ffmpeg/crowd_run_2160p50medium8000k.log"
Command line:
Tools/ffmpeg/ffmpeg -benchmark -y -i Input/y4m/crowd_run_2160p50.y4m -c:v libx264 -preset medium -b:v 8000k -an Output/x264/encoded/crowd_run_2160p50medium8000k.mkv
ffmpeg version N-82227-gdb23fde Copyright (c) 2000-2016 the FFmpeg developers
  built with gcc 5.4.0 (Ubuntu 5.4.0-6ubuntu1~16.04.2) 20160609
  configuration: --prefix=/home/jaroslav/ffmpeg_build --pkg-config-flags=--static --extra-cflags=-I/home/jaroslav/ffmpeg_build/include --extra-ldflags=-L/home/jaroslav/ffmpeg_build/lib --bindir=/home/jaroslav/bin --enable-gpl --enable-libass --enable-libfdk-aac --enable-libfreetype --enable-libmp3lame --enable-libopus --enable-libtheora --enable-libvorbis --enable-libvpx --enable-libx264 --enable-libx265 --enable-nvenc --enable-libmfx --enable-libxvid --enable-libgsm --enable-libopencore-amrnb --enable-version3 --enable-nonfree
  libavutil      55. 35.100 / 55. 35.100
  libavcodec     57. 66.101 / 57. 66.101
  libavformat    57. 57.100 / 57. 57.100
  libavdevice    57.  2.100 / 57.  2.100
  libavfilter     6. 66.100 /  6. 66.100
  libswscale      4.  3.100 /  4.  3.100
  libswresample   2.  4.100 /  2.  4.100
  libpostproc    54.  2.100 / 54.  2.100
Input #0, yuv4mpegpipe, from 'Input/y4m/crowd_run_2160p50.y4m':
  Duration: 00:00:10.00, start: 0.000000, bitrate: 4976642 kb/s
    Stream #0:0: Video: rawvideo (I420 / 0x30323449), yuv420p(progressive), 3840x2160, SAR 1:1 DAR 16:9, 50 fps, 50 tbr, 50 tbn, 50 tbc
[libx264 @ 0x28531c0] using SAR=1/1
[libx264 @ 0x28531c0] using cpu capabilities: MMX2 SSE2Fast SSSE3 SSE4.2 AVX FMA3 AVX2 LZCNT BMI2
[libx264 @ 0x28531c0] profile High, level 5.2
[libx264 @ 0x28531c0] 264 - core 148 - H.264/MPEG-4 AVC codec - Copyleft 2003-2016 - http://www.videolan.org/x264.html - options: cabac=1 ref=3 deblock=1:0:0 analyse=0x3:0x113 me=hex subme=7 psy=1 psy_rd=1.00:0.00 mixed_ref=1 me_range=16 chroma_me=1 trellis=1 8x8dct=1 cqm=0 deadzone=21,11 fast_pskip=1 chroma_qp_offset=-2 threads=6 lookahead_threads=1 sliced_threads=0 nr=0 decimate=1 interlaced=0 bluray_compat=0 constrained_intra=0 bframes=3 b_pyramid=2 b_adapt=1 b_bias=0 direct=1 weightb=1 open_gop=0 weightp=2 keyint=250 keyint_min=25 scenecut=40 intra_refresh=0 rc_lookahead=40 rc=abr mbtree=1 bitrate=8000 ratetol=1.0 qcomp=0.60 qpmin=0 qpmax=69 qpstep=4 ip_ratio=1.40 aq=1:1.00
Output #0, matroska, to 'Output/x264/encoded/crowd_run_2160p50medium8000k.mkv':
  Metadata:
    encoder         : Lavf57.57.100
    Stream #0:0: Video: h264 (libx264) (H264 / 0x34363248), yuv420p, 3840x2160 [SAR 1:1 DAR 16:9], q=-1--1, 8000 kb/s, 50 fps, 1k tbn, 50 tbc
    Metadata:
      encoder         : Lavc57.66.101 libx264
    Side data:
      cpb: bitrate max/min/avg: 0/0/8000000 buffer size: 0 vbv_delay: -1
Stream mapping:
  Stream #0:0 -> #0:0 (rawvideo (native) -> h264 (libx264))
Press [q] to stop, [?] for help
frame=   13 fps=0.0 q=0.0 size=       0kB time=00:00:00.00 bitrate=N/A speed=   0x    frame=   19 fps= 19 q=0.0 size=       0kB time=00:00:00.00 bitrate=N/A speed=   0x    frame=   34 fps= 22 q=0.0 size=       0kB time=00:00:00.00 bitrate=N/A speed=   0x    frame=   38 fps= 18 q=0.0 size=       0kB time=00:00:00.00 bitrate=N/A speed=   0x    frame=   41 fps= 16 q=0.0 size=       0kB time=00:00:00.00 bitrate=N/A speed=   0x    frame=   47 fps=9.6 q=0.0 size=       0kB time=00:00:00.00 bitrate=N/A speed=   0x    frame=   53 fps=9.5 q=36.0 size=       1kB time=00:00:00.00 bitrate=5872.0kbits/s speed=0.000179x    frame=   57 fps=9.2 q=39.0 size=       1kB time=00:00:00.08 bitrate=  72.5kbits/s speed=0.0131x    frame=   63 fps=9.4 q=52.0 size=       1kB time=00:00:00.20 bitrate=  29.2kbits/s speed=0.0299x    frame=   70 fps=9.7 q=51.0 size=       1kB time=00:00:00.34 bitrate=  17.2kbits/s speed=0.0471x    frame=   75 fps=9.6 q=51.0 size=       1kB time=00:00:00.44 bitrate=  13.3kbits/s speed=0.0567x    frame=   82 fps=9.8 q=51.0 size=       1kB time=00:00:00.58 bitrate=  10.1kbits/s speed=0.0694x    frame=   90 fps= 10 q=50.0 size=       1kB time=00:00:00.74 bitrate=   7.9kbits/s speed=0.0823x    frame=   98 fps= 10 q=50.0 size=       1kB time=00:00:00.90 bitrate=   6.5kbits/s speed=0.0943x    frame=  103 fps= 10 q=50.0 size=       1kB time=00:00:01.00 bitrate=   5.9kbits/s speed=0.0993x    frame=  110 fps= 10 q=50.0 size=       1kB time=00:00:01.14 bitrate=   5.1kbits/s speed=0.107x    frame=  117 fps= 10 q=50.0 size=       1kB time=00:00:01.28 bitrate=   4.6kbits/s speed=0.113x    frame=  125 fps= 10 q=49.0 size=       1kB time=00:00:01.44 bitrate=   4.1kbits/s speed=0.121x    frame=  133 fps= 11 q=49.0 size=       1kB time=00:00:01.60 bitrate=   3.7kbits/s speed=0.127x    frame=  141 fps= 11 q=49.0 size=       1kB time=00:00:01.76 bitrate=   3.3kbits/s speed=0.133x    frame=  149 fps= 11 q=49.0 size=       1kB time=00:00:01.92 bitrate=   3.1kbits/s speed=0.138x    frame=  157 fps= 11 q=49.0 size=       1kB time=00:00:02.08 bitrate=   2.8kbits/s speed=0.143x    frame=  159 fps= 10 q=49.0 size=       1kB time=00:00:02.12 bitrate=   2.8kbits/s speed=0.139x    frame=  166 fps= 10 q=49.0 size=       1kB time=00:00:02.26 bitrate=   2.6kbits/s speed=0.143x    frame=  174 fps= 11 q=49.0 size=       1kB time=00:00:02.42 bitrate=   2.4kbits/s speed=0.147x    frame=  181 fps= 11 q=49.0 size=       1kB time=00:00:02.56 bitrate=   2.3kbits/s speed=0.15x    frame=  188 fps= 11 q=49.0 size=       1kB time=00:00:02.70 bitrate=   2.2kbits/s speed=0.154x    frame=  195 fps= 11 q=48.0 size=       1kB time=00:00:02.84 bitrate=   2.1kbits/s speed=0.156x    frame=  201 fps= 11 q=48.0 size=       1kB time=00:00:02.96 bitrate=   2.0kbits/s speed=0.157x    frame=  209 fps= 11 q=48.0 size=       1kB time=00:00:03.12 bitrate=   1.9kbits/s speed=0.161x    frame=  216 fps= 11 q=48.0 size=       1kB time=00:00:03.26 bitrate=   1.8kbits/s speed=0.163x    frame=  222 fps= 11 q=48.0 size=       1kB time=00:00:03.38 bitrate=   1.7kbits/s speed=0.164x    frame=  229 fps= 11 q=48.0 size=       1kB time=00:00:03.52 bitrate=   1.7kbits/s speed=0.166x    frame=  234 fps= 11 q=48.0 size=       1kB time=00:00:03.62 bitrate=   1.6kbits/s speed=0.167x    frame=  241 fps= 11 q=48.0 size=       1kB time=00:00:03.76 bitrate=   1.6kbits/s speed=0.169x    frame=  248 fps= 11 q=48.0 size=       1kB time=00:00:03.90 bitrate=   1.5kbits/s speed=0.171x    frame=  254 fps= 11 q=48.0 size=       1kB time=00:00:04.02 bitrate=   1.5kbits/s speed=0.172x    frame=  261 fps= 11 q=48.0 size=       1kB time=00:00:04.16 bitrate=   1.4kbits/s speed=0.172x    frame=  269 fps= 11 q=48.0 size=       1kB time=00:00:04.32 bitrate=   1.4kbits/s speed=0.174x    frame=  275 fps= 11 q=48.0 size=       1kB time=00:00:04.44 bitrate=   1.3kbits/s speed=0.176x    frame=  282 fps= 11 q=48.0 size=       1kB time=00:00:04.58 bitrate=   1.3kbits/s speed=0.176x    frame=  289 fps= 11 q=48.0 size=       1kB time=00:00:04.72 bitrate=   1.2kbits/s speed=0.178x    frame=  294 fps= 11 q=48.0 size=       1kB time=00:00:04.82 bitrate=   1.2kbits/s speed=0.177x    frame=  296 fps= 11 q=45.0 size=       1kB time=00:00:04.86 bitrate=   1.2kbits/s speed=0.173x    frame=  305 fps= 11 q=49.0 size=    5096kB time=00:00:05.04 bitrate=8280.9kbits/s speed=0.176x    frame=  312 fps= 11 q=49.0 size=    5096kB time=00:00:05.18 bitrate=8057.1kbits/s speed=0.177x    frame=  319 fps= 11 q=48.0 size=    5096kB time=00:00:05.32 bitrate=7845.1kbits/s speed=0.178x    frame=  324 fps= 11 q=48.0 size=    5096kB time=00:00:05.42 bitrate=7700.4kbits/s speed=0.178x    frame=  331 fps= 11 q=48.0 size=    5096kB time=00:00:05.56 bitrate=7506.6kbits/s speed=0.179x    frame=  336 fps= 11 q=48.0 size=    5096kB time=00:00:05.66 bitrate=7374.0kbits/s speed=0.179x    frame=  343 fps= 11 q=48.0 size=    5096kB time=00:00:05.80 bitrate=7196.0kbits/s speed=0.18x    frame=  350 fps= 11 q=48.0 size=    5096kB time=00:00:05.94 bitrate=7026.4kbits/s speed=0.182x    frame=  355 fps= 11 q=48.0 size=    5096kB time=00:00:06.04 bitrate=6910.1kbits/s speed=0.182x    frame=  363 fps= 11 q=48.0 size=    5096kB time=00:00:06.20 bitrate=6731.8kbits/s speed=0.183x    frame=  368 fps= 11 q=48.0 size=    5096kB time=00:00:06.30 bitrate=6625.0kbits/s speed=0.183x    frame=  374 fps= 11 q=48.0 size=    5096kB time=00:00:06.42 bitrate=6501.2kbits/s speed=0.184x    frame=  380 fps= 11 q=48.0 size=    5096kB time=00:00:06.54 bitrate=6381.9kbits/s speed=0.184x    frame=  388 fps= 11 q=48.0 size=    5096kB time=00:00:06.70 bitrate=6229.5kbits/s speed=0.185x    frame=  395 fps= 11 q=48.0 size=    5096kB time=00:00:06.84 bitrate=6102.0kbits/s speed=0.186x    frame=  402 fps= 11 q=48.0 size=    5096kB time=00:00:06.98 bitrate=5979.7kbits/s speed=0.187x    frame=  408 fps= 11 q=48.0 size=    5096kB time=00:00:07.10 bitrate=5878.6kbits/s speed=0.188x    frame=  413 fps= 11 q=48.0 size=    5096kB time=00:00:07.20 bitrate=5797.0kbits/s speed=0.188x    frame=  419 fps= 11 q=48.0 size=    5096kB time=00:00:07.32 bitrate=5701.9kbits/s speed=0.188x    frame=  426 fps= 11 q=48.0 size=    5096kB time=00:00:07.46 bitrate=5595.0kbits/s speed=0.189x    frame=  431 fps= 11 q=48.0 size=    5096kB time=00:00:07.56 bitrate=5521.0kbits/s speed=0.189x    frame=  436 fps= 11 q=48.0 size=    5096kB time=00:00:07.66 bitrate=5448.9kbits/s speed=0.189x    frame=  441 fps= 11 q=48.0 size=    5096kB time=00:00:07.76 bitrate=5378.7kbits/s speed=0.189x    frame=  447 fps= 11 q=48.0 size=    5096kB time=00:00:07.88 bitrate=5296.8kbits/s speed=0.19x    frame=  454 fps= 11 q=48.0 size=    5096kB time=00:00:08.02 bitrate=5204.3kbits/s speed=0.19x    frame=  460 fps= 11 q=48.0 size=    5096kB time=00:00:08.14 bitrate=5127.6kbits/s speed=0.191x    frame=  467 fps= 11 q=48.0 size=    5096kB time=00:00:08.28 bitrate=5040.9kbits/s speed=0.192x    frame=  470 fps= 11 q=48.0 size=    5096kB time=00:00:08.34 bitrate=5004.7kbits/s speed=0.19x    frame=  476 fps= 11 q=48.0 size=    5096kB time=00:00:08.46 bitrate=4933.7kbits/s speed=0.19x    frame=  483 fps= 11 q=48.0 size=    5096kB time=00:00:08.60 bitrate=4853.4kbits/s speed=0.191x    frame=  491 fps= 11 q=48.0 size=    5096kB time=00:00:08.76 bitrate=4764.7kbits/s speed=0.191x    frame=  499 fps= 11 q=48.0 size=    5096kB time=00:00:08.92 bitrate=4679.3kbits/s speed=0.192x    frame=  500 fps= 10 q=-1.0 Lsize=    9882kB time=00:00:09.94 bitrate=8143.7kbits/s speed=0.199x    
video:9878kB audio:0kB subtitle:0kB other streams:0kB global headers:0kB muxing overhead: 0.044953%
bench: utime=166.984s
bench: maxrss=1866376kB
[libx264 @ 0x28531c0] frame I:2     Avg QP:37.56  size:266192
[libx264 @ 0x28531c0] frame P:126   Avg QP:47.19  size: 37023
[libx264 @ 0x28531c0] frame B:372   Avg QP:49.18  size: 13218
[libx264 @ 0x28531c0] consecutive B-frames:  0.8%  0.0%  0.0% 99.2%
[libx264 @ 0x28531c0] mb I  I16..4: 23.2% 66.5% 10.4%
[libx264 @ 0x28531c0] mb P  I16..4:  3.1%  4.7%  0.0%  P16..4: 28.0%  2.6%  1.8%  0.0%  0.0%    skip:59.7%
[libx264 @ 0x28531c0] mb B  I16..4:  0.0%  0.1%  0.0%  B16..8: 30.7%  0.5%  0.0%  direct: 0.2%  skip:68.4%  L0:42.5% L1:57.3% BI: 0.2%
[libx264 @ 0x28531c0] final ratefactor: 40.18
[libx264 @ 0x28531c0] 8x8 transform intra:61.0% inter:97.0%
[libx264 @ 0x28531c0] coded y,uvDC,uvAC intra: 19.6% 52.7% 14.5% inter: 2.3% 4.8% 0.0%
[libx264 @ 0x28531c0] i16 v,h,dc,p: 42% 25%  8% 25%
[libx264 @ 0x28531c0] i8 v,h,dc,ddl,ddr,vr,hd,vl,hu: 17%  9% 40%  6%  5%  6%  6%  6%  4%
[libx264 @ 0x28531c0] i4 v,h,dc,ddl,ddr,vr,hd,vl,hu: 22% 17% 12%  9%  9%  9%  8%  7%  6%
[libx264 @ 0x28531c0] i8c dc,h,v,p: 83%  6%  9%  1%
[libx264 @ 0x28531c0] Weighted P-Frames: Y:1.6% UV:0.8%
[libx264 @ 0x28531c0] ref P L0: 71.4%  3.8% 18.1%  6.6%  0.1%
[libx264 @ 0x28531c0] ref B L0: 94.9%  4.0%  1.1%
[libx264 @ 0x28531c0] ref B L1: 98.7%  1.3%
[libx264 @ 0x28531c0] kb/s:8091.42
